<svg width="224" height="266" viewBox="0 0 224 266" fill="none" xmlns="http://www.w3.org/2000/svg">
<path opacity="0.15" d="M140.41 263.609V265.658L100.914 242.684L101.848 241.147L140.495 263.523L140.41 263.609ZM198.507 240.72L155.444 265.744V263.694L197.572 239.182L198.507 240.72ZM223.393 190.074V226.286L213.201 232.179L212.267 230.642L221.525 225.261V190.074H223.308H223.393ZM74.3285 190.074V225.261L87.154 232.691L86.2197 234.229L72.5448 226.286V190.074H74.3285ZM85.2854 133.364L74.3285 139.769V174.957H72.5448V138.744L84.436 131.826L85.2854 133.364ZM223.393 138.744V174.957H221.61V139.769L204.282 129.691L205.132 128.154L223.393 138.744ZM190.438 119.613L189.588 121.151L155.444 101.336V99.2865L190.438 119.613ZM218.127 223.297V141.819L147.884 101.08L77.641 141.819V223.297L147.884 264.036L218.127 223.297ZM147.969 99.0303L219.826 140.794V224.236L148.394 265.744L147.969 266L76.0272 224.236V140.794L147.544 99.2865L147.969 99.0303ZM140.41 101.336L99.9795 124.823L99.1301 123.286L140.495 99.2865V101.336H140.41Z" fill="#0D214F"/>
<path opacity="0.15" d="M26.4207 64.6963V65.5021L11.0444 56.4708L11.4082 55.8664L26.4537 64.6627L26.4207 64.6963ZM49.0386 55.6986L32.2735 65.5356V64.7299L48.6748 55.0942L49.0386 55.6986ZM58.7273 35.7894V50.0246L54.7592 52.3412L54.3955 51.7369L57.9998 49.6218V35.7894H58.6942H58.7273ZM0.694401 35.7894V49.6218L5.68753 52.5427L5.3238 53.147L-1.14441e-05 50.0246V35.7894H0.694401ZM4.96006 13.4966L0.694401 16.0146V29.8469H-1.14441e-05V15.6117L4.62939 12.8923L4.96006 13.4966ZM58.7273 15.6117V29.8469H58.0329V16.0146L51.2872 12.0529L51.6178 11.4486L58.7273 15.6117ZM45.8972 8.09123L45.5665 8.69556L32.2735 0.906481V0.100717L45.8972 8.09123ZM56.6771 48.8496V16.8204L29.3306 0.805764L1.98402 16.8204V48.8496L29.3306 64.8642L56.6771 48.8496ZM29.3636 0L57.3384 16.4175V49.2189L29.529 65.5356L29.3636 65.6364L1.35575 49.2189V16.4175L29.1983 0.100717L29.3636 0ZM26.4207 0.906481L10.6807 10.1392L10.35 9.5349L26.4537 0.100717V0.906481H26.4207Z" fill="#0D214F"/>
</svg>
