<svg width="88" height="96" viewBox="0 0 88 96" fill="none" xmlns="http://www.w3.org/2000/svg">
<path d="M43.7049 92.5137C43.6067 92.5137 43.5576 92.5137 43.4594 92.4646L5.15763 70.3674C5.01032 70.2691 4.91211 70.1218 4.91211 69.9745V25.7311C4.91211 25.5837 5.01032 25.3873 5.15763 25.3382L43.4594 3.24102C43.6067 3.14281 43.8032 3.14281 43.9505 3.24102L82.2523 25.3382C82.3996 25.4364 82.4978 25.5837 82.4978 25.7311V69.9745C82.4978 70.1218 82.3996 70.3183 82.2523 70.3674L43.9505 92.4646C43.8523 92.4646 43.8032 92.5137 43.7049 92.5137Z" fill="#0D214F"/>
<path d="M66.2938 70.2691V72.9699H65.8027V70.7602H65.5572L65.8027 70.2691H66.2938ZM64.8206 72.6753C64.5751 72.8717 64.2805 72.9699 63.9859 72.9699C63.6912 72.9699 63.2984 72.8226 63.0529 72.5771C62.8073 72.3316 62.66 71.9878 62.66 71.6441C62.66 71.3004 62.8073 70.9566 63.0529 70.7111C63.2984 70.4656 63.6421 70.3183 63.9859 70.3183C64.3296 70.3183 64.6242 70.4165 64.8206 70.6129C64.8206 70.5638 65.3117 70.3183 65.3117 70.3183V72.8717C65.3117 73.2645 65.1644 73.5592 64.9188 73.8047C64.6733 74.0502 64.3296 74.1975 63.9859 74.1975C63.6421 74.1975 63.5439 74.1975 63.3966 74.0502V73.461C63.5439 73.6083 63.7403 73.7065 63.9859 73.7065C64.2314 73.7065 64.4278 73.6083 64.5751 73.461C64.7224 73.3136 64.8206 73.0681 64.8206 72.8717V72.6753ZM63.9859 72.4789C64.2314 72.4789 64.4278 72.3807 64.5751 72.2333C64.7224 72.086 64.8206 71.8405 64.8206 71.6441C64.8206 71.4477 64.7224 71.2021 64.5751 71.0548C64.4278 70.9075 64.1823 70.8093 63.9859 70.8093C63.7894 70.8093 63.5439 70.9075 63.3966 71.0548C63.2493 71.2021 63.1511 71.4477 63.1511 71.6441C63.1511 71.8405 63.2493 72.086 63.3966 72.2333C63.5439 72.3807 63.7403 72.4789 63.9859 72.4789ZM62.3654 70.2691V72.9699H61.8743V70.7602H61.6288L61.8743 70.2691H62.3654ZM61.3833 69.0415V72.9699H60.8922V69.287L61.3833 69.0415ZM57.946 70.5147L58.437 70.2691V70.5638C58.6825 70.3674 58.9772 70.2691 59.2718 70.2691C59.5664 70.2691 59.9593 70.4165 60.2048 70.662C60.4503 70.9075 60.5976 71.2512 60.5976 71.595V72.9699H60.1066V71.595C60.1066 71.3495 60.0084 71.153 59.8611 71.0057C59.7137 70.8584 59.4682 70.7602 59.2718 70.7602C59.0754 70.7602 58.8298 70.8584 58.6825 71.0057C58.5352 71.153 58.437 71.3986 58.437 71.595V72.9699H57.946V70.5147ZM57.2094 72.6753C56.9639 72.8717 56.6692 72.9699 56.3746 72.9699C56.08 72.9699 55.6871 72.8226 55.4416 72.5771C55.1961 72.3316 55.0488 71.9878 55.0488 71.6441C55.0488 71.3004 55.1961 70.9566 55.4416 70.7111C55.6871 70.4656 56.0309 70.3183 56.3746 70.3183C56.7183 70.3183 57.013 70.4165 57.2094 70.6129V70.3183H57.7004V73.019L57.2094 72.7735V72.6753ZM56.3746 70.7602C56.1291 70.7602 55.9327 70.8584 55.7853 71.0057C55.638 71.153 55.5398 71.3986 55.5398 71.595C55.5398 71.7914 55.638 72.0369 55.7853 72.1842C55.9327 72.3316 56.1782 72.4298 56.3746 72.4298C56.571 72.4298 56.8165 72.3316 56.9639 72.1842C57.1112 72.0369 57.2094 71.7914 57.2094 71.595C57.2094 71.3986 57.1112 71.153 56.9639 71.0057C56.8165 70.8584 56.6201 70.7602 56.3746 70.7602ZM50.8749 70.5147L51.3659 70.2691V70.4656C51.5623 70.3674 51.7588 70.2691 51.9552 70.2691C52.1516 70.2691 52.4953 70.3674 52.7408 70.6129C52.7408 70.6129 52.7899 70.662 52.8391 70.7111C52.8391 70.7111 52.8882 70.662 52.9373 70.6129C53.1337 70.4165 53.4283 70.2691 53.7229 70.2691C54.0176 70.2691 54.2631 70.3674 54.5086 70.6129C54.705 70.8093 54.8032 71.0548 54.8524 71.3495V72.9699H54.3613V71.3495C54.3613 71.2021 54.3122 71.0548 54.1649 70.9075C54.0667 70.8093 53.9194 70.7111 53.7229 70.7111C53.5265 70.7111 53.4283 70.7602 53.281 70.9075C53.1828 71.0057 53.0846 71.153 53.0846 71.3495V72.9699H52.5935V71.3495C52.5935 71.2021 52.5444 71.0548 52.3971 70.9075C52.2989 70.8093 52.1516 70.7111 51.9552 70.7111C51.7588 70.7111 51.6605 70.7602 51.5132 70.9075C51.415 71.0057 51.3168 71.153 51.3168 71.3495V72.9699H50.8257V70.5147H50.8749ZM49.8437 71.3495C50.0401 71.3495 50.2365 71.4477 50.3838 71.595C50.5311 71.7423 50.6293 71.9387 50.6293 72.1351C50.6293 72.3316 50.5311 72.528 50.3838 72.6753C50.2365 72.8226 50.0401 72.9208 49.7946 72.9208C49.549 72.9208 49.4017 72.8226 49.2544 72.6753C49.1071 72.528 49.0089 72.3316 49.0089 72.1351H49.4999C49.4999 72.2333 49.4999 72.2824 49.5981 72.3316C49.6472 72.3807 49.7455 72.4298 49.7946 72.4298C49.8437 72.4298 49.9419 72.4298 49.991 72.3316C50.0401 72.2824 50.0892 72.1842 50.0892 72.1351C50.0892 72.086 50.0892 71.9878 49.991 71.9387C49.9419 71.8896 49.8437 71.8405 49.7454 71.8405C49.549 71.8405 49.3526 71.7423 49.2053 71.595C49.058 71.4477 48.9598 71.2512 48.9598 71.0548C48.9598 70.8584 49.058 70.662 49.2053 70.5147C49.3526 70.3674 49.549 70.2691 49.7454 70.2691C49.9419 70.2691 50.1383 70.3674 50.3347 70.5147L50.5802 70.7602L50.0892 71.1039C50.0892 71.0057 50.0892 70.9566 49.991 70.9075C49.9419 70.8584 49.8437 70.8093 49.7946 70.8093C49.7455 70.8093 49.6472 70.8093 49.5981 70.9075C49.549 70.9566 49.4999 71.0548 49.4999 71.1039C49.4999 71.153 49.4999 71.2512 49.5981 71.3003C49.6472 71.3495 49.7454 71.3986 49.8437 71.3986V71.3495ZM48.7634 70.2691V72.9699H48.2723V70.7602H48.0268L48.2723 70.2691H48.7634ZM45.0805 70.5147L45.5715 70.2691V70.5638C45.8171 70.3674 46.1117 70.2691 46.4063 70.2691C46.7009 70.2691 47.0938 70.4165 47.3393 70.662C47.5848 70.9075 47.7321 71.2512 47.7321 71.595V72.9699H47.2411V71.595C47.2411 71.3495 47.1429 71.153 46.9956 71.0057C46.8483 70.8584 46.6027 70.7602 46.4063 70.7602C46.2099 70.7602 45.9644 70.8584 45.8171 71.0057C45.6697 71.153 45.5715 71.3986 45.5715 71.595V72.9699H45.0805V70.5147ZM44.3439 72.6753C44.0984 72.8717 43.8038 72.9699 43.5091 72.9699C43.2145 72.9699 42.8217 72.8226 42.5761 72.5771C42.3306 72.3316 42.1833 71.9878 42.1833 71.6441C42.1833 71.3004 42.3306 70.9566 42.5761 70.7111C42.8217 70.4656 43.1654 70.3183 43.5091 70.3183C43.8529 70.3183 44.0984 70.4165 44.3439 70.6129V70.3183H44.835V73.019L44.3439 72.7735V72.6753ZM43.5091 70.7602C43.2636 70.7602 43.0672 70.8584 42.9199 71.0057C42.7726 71.153 42.6744 71.3986 42.6744 71.595C42.6744 71.7914 42.7726 72.0369 42.9199 72.1842C43.0672 72.3316 43.2636 72.4298 43.5091 72.4298C43.7547 72.4298 43.9511 72.3316 44.0984 72.1842C44.2457 72.0369 44.3439 71.7914 44.3439 71.595C44.3439 71.3986 44.2457 71.153 44.0984 71.0057C43.9511 70.8584 43.7055 70.7602 43.5091 70.7602ZM41.3976 69.0415H41.8887V72.9699L41.3976 72.7244C41.1521 72.8717 40.8575 72.9699 40.5628 72.9699C40.2682 72.9699 39.8754 72.8226 39.6298 72.5771C39.3843 72.3316 39.237 71.9878 39.237 71.6441C39.237 71.3004 39.3843 70.9566 39.6298 70.7111C39.8754 70.4656 40.2191 70.3183 40.5628 70.3183C40.9066 70.3183 41.2012 70.4165 41.3976 70.6129V69.0906V69.0415ZM40.5628 70.7602C40.3173 70.7602 40.1209 70.8584 39.9736 71.0057C39.8263 71.153 39.7281 71.3986 39.7281 71.595C39.7281 71.7914 39.8263 72.0369 39.9736 72.1842C40.1209 72.3316 40.3173 72.4298 40.5628 72.4298C40.8084 72.4298 41.0048 72.3316 41.1521 72.1842C41.2994 72.0369 41.3976 71.7914 41.3976 71.595C41.3976 71.3986 41.2994 71.153 41.1521 71.0057C41.0048 70.8584 40.7593 70.7602 40.5628 70.7602ZM33.5408 70.5147L34.0319 70.2691V70.4656C34.2283 70.3674 34.4247 70.2691 34.6211 70.2691C34.8176 70.2691 35.2104 70.3674 35.4068 70.6129C35.4068 70.6129 35.4559 70.662 35.505 70.7111C35.505 70.7111 35.5541 70.662 35.6032 70.6129C35.7997 70.4165 36.0943 70.2691 36.3889 70.2691C36.6835 70.2691 36.9782 70.3674 37.1746 70.6129C37.371 70.8093 37.4692 71.0548 37.5183 71.3495V72.9699H37.0273V71.3495C37.0273 71.2021 36.9782 71.0548 36.8309 70.9075C36.7327 70.8093 36.5853 70.7111 36.3889 70.7111C36.1925 70.7111 36.0943 70.7602 35.947 70.9075C35.8488 71.0057 35.7506 71.153 35.7506 71.3495V72.9699H35.2595V71.3495C35.2595 71.2021 35.2104 71.0548 35.0631 70.9075C34.9649 70.8093 34.8176 70.7111 34.6211 70.7111C34.4247 70.7111 34.3265 70.7602 34.1792 70.9075C34.081 71.0057 33.9828 71.153 33.9828 71.3495V72.9699H33.4917V70.5147H33.5408ZM32.6569 69.9254C32.6078 69.8763 32.5587 69.7781 32.5587 69.6799C32.5587 69.5817 32.5587 69.4835 32.6569 69.4344C32.7061 69.3853 32.8043 69.3362 32.9025 69.3362C33.0007 69.3362 33.0989 69.3362 33.148 69.4344C33.1971 69.4835 33.2462 69.5817 33.2462 69.6799C33.2462 69.7781 33.2462 69.8763 33.148 69.9254C33.0989 69.9745 33.0007 70.0236 32.9025 70.0236C32.8043 70.0236 32.7061 70.0236 32.6569 69.9254ZM33.2953 70.2691V72.9699H32.8043V70.7602H32.5587L32.8043 70.2691H33.2953ZM31.3311 70.2691V69.287L31.8222 69.0415V70.2691H32.3132V70.7602H31.8222V72.9699H31.3311V70.7602H30.8401V70.2691H31.3311ZM30.0544 71.2512C30.0544 71.153 29.9562 71.1039 29.9071 71.0057C29.7598 70.8584 29.5142 70.7602 29.3178 70.7602C29.1214 70.7602 28.8759 70.8584 28.7286 71.0057C28.6795 71.1039 28.5813 71.153 28.5813 71.2512H30.1526H30.0544ZM28.3848 71.7423C28.3848 71.9387 28.483 72.086 28.6304 72.2333C28.7777 72.3807 29.0232 72.4789 29.2196 72.4789C29.416 72.4789 29.6616 72.3807 29.8089 72.2333V72.8226C29.6125 72.9208 29.416 72.9699 29.2196 72.9699C28.8268 72.9699 28.5321 72.8226 28.2866 72.5771C28.0411 72.3316 27.8938 71.9878 27.8938 71.6441C27.8938 71.3004 28.0411 70.9566 28.2866 70.7111C28.5321 70.4656 28.8759 70.3183 29.2196 70.3183C29.5633 70.3183 29.9071 70.4656 30.1526 70.7111C30.3981 70.9566 30.5454 71.3004 30.5454 71.6441C30.5454 71.9878 30.5454 71.6932 30.5454 71.7423H28.3357H28.3848ZM24.9475 70.5147L25.4385 70.2691V70.5638C25.6841 70.3674 25.9787 70.2691 26.3224 70.2691C26.6662 70.2691 27.0099 70.4165 27.2554 70.662C27.5009 70.9075 27.6483 71.2512 27.6483 71.595V72.9699H27.1572V71.595C27.1572 71.3495 27.059 71.153 26.9117 71.0057C26.7644 70.8584 26.5188 70.7602 26.3224 70.7602C26.126 70.7602 25.8805 70.8584 25.7332 71.0057C25.5859 71.153 25.4877 71.3986 25.4877 71.595V72.9699H24.9966V70.5147H24.9475ZM22.7869 70.0236C22.7378 70.0236 22.6396 70.0236 22.5905 69.9745C22.5905 69.9745 22.5414 69.8763 22.5414 69.7781C22.5414 69.6799 22.5414 69.6308 22.5905 69.5817C22.5905 69.5817 22.6887 69.5326 22.7869 69.5326C22.8851 69.5326 22.9342 69.5326 22.9342 69.5817C22.9833 69.5817 22.9833 69.6799 22.9833 69.7781C22.9833 69.8763 22.9833 69.9254 22.9342 69.9745C22.9342 69.9745 22.836 70.0236 22.7869 70.0236ZM23.9654 70.0236C23.9163 70.0236 23.8181 70.0236 23.769 69.9745C23.7199 69.9745 23.7199 69.8763 23.7199 69.7781C23.7199 69.6799 23.7199 69.6308 23.769 69.5817C23.769 69.5817 23.8672 69.5326 23.9654 69.5326C24.0636 69.5326 24.1127 69.5326 24.1127 69.5817C24.1127 69.5817 24.1618 69.6799 24.1618 69.7781C24.1618 69.8763 24.1618 69.9254 24.1127 69.9745C24.1127 69.9745 24.0145 70.0236 23.9654 70.0236ZM23.3761 70.7602C23.1306 70.7602 22.9342 70.8584 22.7869 71.0057C22.6396 71.153 22.5414 71.3986 22.5414 71.595C22.5414 71.7914 22.6396 72.0369 22.7869 72.1842C22.9342 72.3316 23.1797 72.4298 23.3761 72.4298C23.5726 72.4298 23.8181 72.3316 23.9654 72.1842C24.1127 72.0369 24.2109 71.7914 24.2109 71.595C24.2109 71.3986 24.1127 71.153 23.9654 71.0057C23.8181 70.8584 23.5726 70.7602 23.3761 70.7602ZM23.3761 72.9699C22.9833 72.9699 22.6887 72.8226 22.4431 72.5771C22.1976 72.3316 22.0503 71.9878 22.0503 71.6441C22.0503 71.3004 22.1976 70.9566 22.4431 70.7111C22.6887 70.4656 23.0324 70.3183 23.3761 70.3183C23.7199 70.3183 24.0636 70.4656 24.3091 70.7111C24.5546 70.9566 24.702 71.3004 24.702 71.6441C24.702 71.9878 24.5546 72.3316 24.3091 72.5771C24.0636 72.8226 23.7199 72.9699 23.3761 72.9699ZM21.2646 72.9699H21.1664L19.3004 70.2691H19.8897L21.2646 72.2824V70.5147L21.7557 70.2691V72.9699C21.7557 73.3136 21.6084 73.5592 21.3628 73.8047C21.1173 74.0502 20.8718 74.1484 20.5281 74.1975V73.7065C20.7245 73.7065 20.8718 73.6083 21.0191 73.461C21.1664 73.3136 21.2646 73.1663 21.2646 72.9699ZM59.37 62.0686V65.997H58.879V62.3142L59.37 62.0686ZM58.0442 64.2784C58.0442 64.1801 57.946 64.131 57.8969 64.0328C57.7495 63.8855 57.504 63.7873 57.3076 63.7873C57.1112 63.7873 56.8656 63.8855 56.7183 64.0328C56.6201 64.0819 56.571 64.1801 56.5219 64.2784H58.0933H58.0442ZM56.4237 64.7694C56.4237 64.9658 56.5219 65.1131 56.6692 65.2605C56.8166 65.4078 57.0621 65.506 57.2585 65.506C57.4549 65.506 57.7004 65.4078 57.8478 65.2605V65.8497C57.6513 65.9479 57.4549 65.997 57.2585 65.997C56.8657 65.997 56.571 65.8497 56.3255 65.6042C56.08 65.3587 55.9327 65.0149 55.9327 64.6712C55.9327 64.3275 56.08 63.9837 56.3255 63.7382C56.571 63.4927 56.9148 63.3454 57.2585 63.3454C57.6022 63.3454 57.946 63.4927 58.1915 63.7382C58.437 63.9837 58.5843 64.3275 58.5843 64.6712C58.5843 65.0149 58.5843 64.7203 58.5843 64.7694H56.3746H56.4237ZM52.9864 63.5418L53.4774 63.2963V63.5909C53.7229 63.3945 54.0176 63.2963 54.3122 63.2963C54.6068 63.2963 54.9997 63.4436 55.2452 63.6891C55.4907 63.9346 55.638 64.2784 55.638 64.6221V65.997H55.147V64.6221C55.147 64.3766 55.0488 64.1801 54.9015 64.0328C54.7541 63.8855 54.5086 63.7873 54.3122 63.7873C54.1158 63.7873 53.8703 63.8855 53.7229 64.0328C53.5756 64.1801 53.4774 64.3766 53.4774 64.6221V65.997H52.9864V63.5418ZM51.415 63.7873C51.1695 63.7873 50.9731 63.8855 50.8257 64.0328C50.6784 64.1801 50.5802 64.4257 50.5802 64.6221C50.5802 64.8185 50.6784 65.064 50.8257 65.2113C50.9731 65.3587 51.2186 65.4569 51.415 65.4569C51.6114 65.4569 51.857 65.3587 52.0043 65.2113C52.1516 65.064 52.2498 64.8185 52.2498 64.6221C52.2498 64.4257 52.1516 64.1801 52.0043 64.0328C51.857 63.8855 51.6114 63.7873 51.415 63.7873ZM51.415 65.997C51.0222 65.997 50.7275 65.8497 50.482 65.6042C50.2365 65.3587 50.0892 65.0149 50.0892 64.6712C50.0892 64.3275 50.2365 63.9837 50.482 63.7382C50.7275 63.4927 51.0713 63.3454 51.415 63.3454C51.7587 63.3454 52.1025 63.4927 52.348 63.7382C52.5935 63.9837 52.7408 64.3275 52.7408 64.6712C52.7408 65.0149 52.5935 65.3587 52.348 65.6042C52.1025 65.8497 51.7587 65.997 51.415 65.997ZM49.3035 65.997H49.2053L47.3393 63.2963H47.9286L49.3035 65.3096V63.5418L49.7946 63.2963V65.997C49.7946 66.3408 49.6472 66.5863 49.4017 66.8318C49.1562 67.0773 48.9107 67.1755 48.5669 67.2247V66.7336C48.7634 66.7336 48.9107 66.6354 49.058 66.4881C49.2053 66.3408 49.3035 66.1934 49.3035 65.997ZM46.3572 64.4257C46.5536 64.4257 46.75 64.5239 46.8974 64.6712C47.0447 64.8185 47.1429 65.0149 47.1429 65.2113C47.1429 65.4078 47.0447 65.6042 46.8974 65.7515C46.75 65.8988 46.5536 65.997 46.3572 65.997C46.1608 65.997 45.9644 65.8988 45.768 65.7515C45.6206 65.6042 45.5224 65.4078 45.5224 65.2113H46.0135C46.0135 65.3096 46.0135 65.3587 46.1117 65.4078C46.1608 65.4569 46.259 65.506 46.3081 65.506C46.3572 65.506 46.4554 65.506 46.5045 65.4078C46.5536 65.3587 46.6027 65.2605 46.6027 65.2113C46.6027 65.1622 46.6027 65.064 46.5045 65.0149C46.4554 64.9658 46.3572 64.9167 46.259 64.9167C46.0626 64.9167 45.8662 64.8185 45.7188 64.6712C45.5715 64.5239 45.4733 64.3275 45.4733 64.131C45.4733 63.9346 45.5715 63.7382 45.7188 63.5909C45.8662 63.4436 46.0626 63.3454 46.3081 63.3454C46.5536 63.3454 46.701 63.4436 46.8483 63.5909L47.0938 63.8364L46.6027 64.131C46.6027 64.0328 46.6027 63.9837 46.5045 63.9346C46.4554 63.8855 46.3572 63.8364 46.3081 63.8364C46.259 63.8364 46.1608 63.8364 46.1117 63.9346C46.0626 63.9837 46.0135 64.0819 46.0135 64.131C46.0135 64.1801 46.0135 64.2784 46.1117 64.3275C46.1608 64.3766 46.259 64.4257 46.3572 64.4257ZM44.6876 64.2784C44.6876 64.1801 44.5894 64.131 44.5403 64.0328C44.393 63.8855 44.1475 63.7873 43.9511 63.7873C43.7546 63.7873 43.5091 63.8855 43.3618 64.0328C43.2636 64.0819 43.2145 64.1801 43.1654 64.2784H44.7367H44.6876ZM43.0672 64.7694C43.0672 64.9658 43.1654 65.1131 43.3127 65.2605C43.46 65.4078 43.6565 65.506 43.902 65.506C44.1475 65.506 44.3439 65.4078 44.4912 65.2605V65.8497C44.2948 65.9479 44.0984 65.997 43.902 65.997C43.5091 65.997 43.2145 65.8497 42.969 65.6042C42.7234 65.3587 42.5761 65.0149 42.5761 64.6712C42.5761 64.3275 42.7234 63.9837 42.969 63.7382C43.2145 63.4927 43.5582 63.3454 43.902 63.3454C44.2457 63.3454 44.5894 63.4927 44.835 63.7382C45.0805 63.9837 45.2278 64.3275 45.2278 64.6712C45.2278 65.0149 45.2278 64.7203 45.2278 64.7694H43.0181H43.0672ZM41.103 63.2963C41.103 63.0016 41.2503 62.707 41.4958 62.4615C41.7413 62.216 41.9869 62.1177 42.3306 62.0686V62.5597C42.1342 62.5597 41.9869 62.6579 41.8396 62.8052C41.6922 62.9525 41.6431 63.0998 41.594 63.2963H42.3306L42.0851 63.7873H41.594V65.997H41.103V63.7873H40.8575V63.2963H41.103ZM39.2861 63.7873C39.0406 63.7873 38.8442 63.8855 38.6969 64.0328C38.5495 64.1801 38.4513 64.4257 38.4513 64.6221C38.4513 64.8185 38.5495 65.064 38.6969 65.2113C38.8442 65.3587 39.0897 65.4569 39.2861 65.4569C39.4825 65.4569 39.7281 65.3587 39.8754 65.2113C40.0227 65.064 40.1209 64.8185 40.1209 64.6221C40.1209 64.4257 40.0227 64.1801 39.8754 64.0328C39.7281 63.8855 39.4825 63.7873 39.2861 63.7873ZM39.2861 65.997C38.8933 65.997 38.5986 65.8497 38.3531 65.6042C38.1076 65.3587 37.9603 65.0149 37.9603 64.6712C37.9603 64.3275 38.1076 63.9837 38.3531 63.7382C38.5986 63.4927 38.9424 63.3454 39.2861 63.3454C39.6298 63.3454 39.9736 63.4927 40.2191 63.7382C40.4646 63.9837 40.6119 64.3275 40.6119 64.6712C40.6119 65.0149 40.4646 65.3587 40.2191 65.6042C39.9736 65.8497 39.6298 65.997 39.2861 65.997ZM36.9291 63.5909C37.1255 63.3945 37.371 63.2963 37.6657 63.2963V63.7873C37.4692 63.7873 37.3219 63.8855 37.1746 64.0328C37.0273 64.1801 36.9291 64.3275 36.9291 64.5239V65.997H36.438V63.2963L36.9291 63.5418V63.5909ZM33.9828 67.2247H33.4917V63.2963L33.9828 63.5418C34.2283 63.3945 34.5229 63.2963 34.8176 63.2963C35.1122 63.2963 35.505 63.4436 35.7506 63.6891C35.9961 63.9346 36.1434 64.2784 36.1434 64.6221C36.1434 64.9658 35.9961 65.3096 35.7506 65.5551C35.505 65.8006 35.1613 65.9479 34.8176 65.9479C34.4738 65.9479 34.1792 65.8497 33.9828 65.6533V67.1755V67.2247ZM66.1956 39.3822C67.5214 39.3822 68.6508 38.8911 69.5838 37.9582C70.5168 37.0252 71.0079 35.8957 71.0079 34.5208C71.0079 33.1459 70.5168 32.0165 69.5838 31.0835C68.6508 30.1505 67.5214 29.6594 66.1465 29.6594C64.7715 29.6594 63.6421 30.1505 62.7091 31.0835C61.7761 32.0165 61.2851 33.1459 61.2851 34.5208H57.4058C57.4058 32.1147 58.2406 30.0523 59.9593 28.3336C61.6779 26.6149 63.6912 25.7802 66.0974 25.7802C68.5035 25.7802 70.5659 26.6149 72.2355 28.3336C73.9541 30.0523 74.7889 32.1147 74.7889 34.4717C74.7889 36.8287 73.9541 38.9402 72.2355 40.6098C70.5168 42.3285 68.5035 43.1633 66.0974 43.1633C64.7715 43.1633 63.593 43.6543 62.66 44.5873C61.727 45.5203 61.236 46.6497 61.236 47.9755V52.8369H72.8738L74.7889 56.7162H57.3567V47.9755C57.3567 45.5694 58.1915 43.5561 59.9101 41.8374C61.6288 40.1188 63.6421 39.284 66.0483 39.284L66.1956 39.3822ZM51.6605 29.7085H47.7813L49.6963 25.8292H55.4907V56.8144H51.6114V29.7085H51.6605ZM40.1209 29.7085H30.3981L28.483 25.8292H45.9153L40.2191 39.8732C41.3976 40.3152 42.4288 41.0027 43.3618 41.9356C45.0805 43.6543 45.9153 45.6676 45.9153 48.0738C45.9153 50.4799 45.0805 52.5423 43.3618 54.2119C41.6431 55.9305 39.6298 56.7653 37.2237 56.7653C34.8176 56.7653 32.7552 55.9305 31.0856 54.2119C29.3669 52.4932 28.5321 50.4799 28.5321 48.0738H32.4114C32.4114 49.4487 32.9025 50.5781 33.8355 51.5111C34.7685 52.4441 35.8979 52.9351 37.2728 52.9351C38.6478 52.9351 39.7772 52.4441 40.7102 51.5111C41.6432 50.5781 42.1342 49.4487 42.1342 48.0738C42.1342 46.6988 41.6432 45.5694 40.7102 44.6364C40.17 44.0963 39.5316 43.7034 38.7951 43.4579L37.9603 45.5203L34.3756 44.0471L40.2191 29.6594L40.1209 29.7085ZM25.2912 26.6149C26.3715 27.6952 26.9117 29.0211 26.9117 30.4942C26.9117 31.9674 26.4206 33.195 25.4385 34.2753C24.4564 35.3065 23.2288 35.8466 21.7066 35.8466C20.1843 35.8466 19.0058 35.3556 18.0237 34.4226C17.0416 33.4896 16.5015 32.3111 16.5015 30.8871C16.5015 29.463 16.9434 28.2845 17.8764 27.4006C18.8094 26.5658 20.0861 26.1239 21.7066 26.1239H22.0012V34.7172H22.3449C23.3761 34.5208 24.2109 34.0298 24.8493 33.2441C25.4876 32.4584 25.8314 31.5254 25.8314 30.4942C25.8314 29.463 25.3894 28.1863 24.5546 27.3515L25.3403 26.5658L25.2912 26.6149ZM20.6754 27.4988C19.8406 27.5479 19.1531 27.8917 18.5639 28.5791C17.9746 29.2175 17.68 30.0032 17.68 30.9362C17.68 31.8692 17.9746 32.6548 18.5148 33.2932C19.0549 33.9316 19.7424 34.3735 20.6263 34.619H20.97C20.97 34.6681 20.97 27.4988 20.97 27.4988H20.7245H20.6754ZM26.6171 40.6098V41.7392H17.8764V43.4579H16.747V41.7392H15.0283C14.1444 41.7392 13.3587 41.3955 12.7204 40.7571C12.082 40.1188 11.7383 39.3331 11.7383 38.4001C11.7383 37.4671 12.0329 36.8778 12.5731 36.1904L13.3587 37.0252C13.015 37.4671 12.8186 37.909 12.8186 38.4001C12.8186 38.8911 13.015 39.5295 13.457 39.9715C13.8989 40.4134 14.3899 40.6098 14.9792 40.6098H16.6979V37.5162H17.8273V40.6098H26.5679H26.6171ZM14.8319 46.1587C14.6355 46.3551 14.3899 46.4533 14.1444 46.4533C13.8989 46.4533 13.6534 46.3551 13.4079 46.1587C13.2114 45.9622 13.1132 45.7167 13.1132 45.4221C13.1132 45.1275 13.2114 44.931 13.4079 44.7346C13.6043 44.5382 13.8498 44.44 14.1444 44.44C14.4391 44.44 14.6355 44.5382 14.8319 44.7346C15.0283 44.931 15.1265 45.1766 15.1265 45.4221C15.1265 45.6676 15.0283 45.9131 14.8319 46.1587ZM16.747 44.931H26.6171V46.0605H16.747V44.931ZM12.0329 55.8323H25.5367V47.4845H26.6662V56.9617H12.0329V55.8323ZM50.0401 73.2645C50.0401 73.4119 49.9419 73.5101 49.7946 73.5101C49.6472 73.5101 49.549 73.4119 49.549 73.2645C49.549 73.1172 49.6472 73.019 49.7946 73.019C49.9419 73.019 50.0401 73.1172 50.0401 73.2645ZM64.6733 70.0727H63.102C63.0038 70.0727 62.9547 70.0236 62.9547 69.9254C62.9547 69.8272 63.0038 69.7781 63.102 69.7781H64.6733C64.7715 69.7781 64.8206 69.8272 64.8206 69.9254C64.8206 70.0236 64.7715 70.0727 64.6733 70.0727ZM34.8667 65.506C35.1122 65.506 35.3086 65.4078 35.4559 65.2605C35.6032 65.1131 35.7015 64.8676 35.7015 64.6712C35.7015 64.4748 35.6032 64.2293 35.4559 64.0819C35.3086 63.9346 35.0631 63.8364 34.8667 63.8364C34.6702 63.8364 34.4247 63.9346 34.2774 64.0819C34.1301 64.2293 34.0319 64.4748 34.0319 64.6712C34.0319 64.8676 34.1301 65.1131 34.2774 65.2605C34.4247 65.4078 34.6702 65.506 34.8667 65.506Z" fill="white"/>
<path d="M47.9754 94.6251V95.8036L70.8092 82.5944L70.2691 81.7105L47.9263 94.576L47.9754 94.6251ZM14.3877 81.465L39.2839 95.8527V94.6742L14.9279 80.5811L14.3877 81.465ZM0 52.3458V73.1662L5.89258 76.5545L6.43273 75.6706L1.08031 72.577V52.3458H0.0491004H0ZM86.179 52.3458V72.577L78.7642 76.8491L79.3043 77.733L87.2102 73.1662V52.3458H86.179ZM79.8445 19.7401L86.179 23.423V43.6542H87.2102V22.8338L80.3355 18.8563L79.8445 19.7401ZM0 22.8338V43.6542H1.0312V23.423L11.0486 17.6286L10.5575 16.7447L0 22.8338ZM19.0527 11.8343L19.5437 12.7182L39.2839 1.32582V0.147309L19.0527 11.8343ZM3.0445 71.4476V24.6015L43.6542 1.17851L84.2639 24.6015V71.4476L43.6542 94.8706L3.0445 71.4476ZM43.6051 0L2.0624 24.0123V71.9877L43.3596 95.8527L43.6051 96L85.1969 71.9877V24.0123L43.8506 0.147309L43.6051 0ZM47.9754 1.32582L71.3494 14.8297L71.8404 13.9458L47.9263 0.147309V1.32582H47.9754Z" fill="#DDAC4A"/>
</svg>
