<svg width="194" height="231" viewBox="0 0 194 231" fill="none" xmlns="http://www.w3.org/2000/svg">
<path opacity="0.15" d="M72.0648 2.07672V0.296692L106.364 20.2481L105.552 21.5831L71.991 2.15092L72.0648 2.07672ZM21.6121 21.954L59.009 0.222504V2.00258L22.4234 23.289L21.6121 21.954ZM0 65.9361V34.4885L8.85135 29.3708L9.66272 30.7059L1.62275 35.3785V65.9361H0.0737545H0ZM129.451 65.9361V35.3785L118.313 28.9258L119.124 27.5908L131 34.4885V65.9361H129.451ZM119.936 115.184L129.451 109.621V79.0639H131V110.512L120.673 116.519L119.936 115.184ZM0 110.512V79.0639H1.54898V109.621L16.5963 118.373L15.8587 119.708L0 110.512ZM28.6194 127.125L29.357 125.79L59.009 142.997V144.778L28.6194 127.125ZM4.5732 37.0844V107.841L65.5738 143.22L126.574 107.841V37.0844L65.5738 1.70587L4.5732 37.0844ZM65.5 145L3.09797 108.731V36.2686L65.1312 0.222504L65.5 0L127.976 36.2686V108.731L65.8688 144.778L65.5 145ZM72.0648 142.997L107.175 122.601L107.913 123.936L71.991 144.778V142.997H72.0648Z" fill="#0D214F"/>
<path opacity="0.15" d="M171.056 174.816V174.117L184.409 181.96L184.093 182.484L171.027 174.846L171.056 174.816ZM151.414 182.63L165.973 174.087V174.787L151.73 183.155L151.414 182.63ZM143 199.92V187.558L146.446 185.546L146.762 186.071L143.632 187.907V199.92H143.029H143ZM193.397 199.92V187.907L189.061 185.371L189.377 184.846L194 187.558V199.92H193.397ZM189.693 219.279L193.397 217.093V205.08H194V217.442L189.98 219.804L189.693 219.279ZM143 217.442V205.08H143.603V217.093L149.461 220.533L149.174 221.058L143 217.442ZM154.142 223.973L154.429 223.449L165.973 230.213V230.913L154.142 223.973ZM144.78 188.578V216.393L168.529 230.3L192.277 216.393V188.578L168.529 174.671L144.78 188.578ZM168.5 231L144.206 216.743V188.257L168.356 174.087L168.5 174L192.823 188.257V216.743L168.644 230.913L168.5 231ZM171.056 230.213L184.725 222.195L185.012 222.72L171.027 230.913V230.213H171.056Z" fill="#0D214F"/>
</svg>
